PathFileType	4	(X/Y/Z)	9_coords_data.trc
DataRate	CameraRate	NumFrames	NumMarkers	Units	OrigDataRate	OrigDataStartFrame	OrigNumFrames
30.0	30.0	6	21	m	30.0	1	52
Frame#	Time	THUMB_TIP	THUMB_IP	THUMB_MCP	THUMB_CMC	INDEX_TIP	INDEX_DIP	INDEX_PIP	INDEX_MCP	MIDDLE_TIP	MIDDLE_DIP	MIDDLE_PIP	MIDDLE_MCP	RING_TIP	RING_DIP	RING_PIP	RING_MCP	PINKY_TIP	PINKY_DIP	PINKY_PIP	PINKY_MCP	WRIST
X1	Y1	Z1	X2	Y2	Z2	X3	Y3	Z3	X4	Y4	Z4	X5	Y5	Z5	X6	Y6	Z6	X7	Y7	Z7	X8	Y8	Z8	X9	Y9	Z9	X10	Y10	Z10	X11	Y11	Z11	X12	Y12	Z12	X13	Y13	Z13	X14	Y14	Z14	X15	Y15	Z15	X16	Y16	Z16	X17	Y17	Z17	X18	Y18	Z18	X19	Y19	Z19	X20	Y20	Z20	X21	Y21	Z21
0	-2.749317978547796e-18	0.4787160670487757	-0.0154288758125114	-0.1704359479128893	0.48212060870036755	-0.020829661076409378	-0.1483624204495264	0.4766602554409015	-0.02679491762090469	-0.11830547022765264	0.47955137558888306	-0.029594387009443168	-0.07387918976853047	0.570649591936026	0.021884033498175692	-0.17489214511796675	0.5589738037382231	0.01549859605861803	-0.16260792114306544	0.5407466446489841	0.011485739161704034	-0.14576519321495185	0.5124827083051647	-0.000930011569365341	-0.1164286097373809	0.5949471122117851	0.04001746446756771	-0.14261551003677247	0.5815191316264104	0.030471850138423462	-0.13509416810344455	0.5571197179102839	0.021667134573936764	-0.12180676263293289	0.5228313643634465	0.0032700910170907482	-0.09985213850919544	0.6000648048561766	0.03747290563476646	-0.11484049016158382	0.5852006632515703	0.0308669298921872	-0.10706756414581159	0.563227795356545	0.02464113332884965	-0.09713718083902517	0.5305327318289963	0.006777309011616883	-0.08143248613672027	0.6010009019804766	0.0234655443292755	-0.06205787432487109	0.5843126400843567	0.020474218267299893	-0.05970120649137023	0.5638954185336725	0.016020010307087218	-0.05767411137829348	0.5325913671581043	-0.001761787642692969	-0.05985298267990313	0.4622830810018609	-0.023011742144276925	-0.051989820119430985
1	0.03333333333333339	0.47933946769909697	-0.01571553870231346	-0.17075862038231387	0.4828886294834044	-0.02087566904642657	-0.14865032995857064	0.4767650739993041	-0.026940188791915176	-0.11874140706773872	0.4789581196173889	-0.029783129085733995	-0.07427795869266585	0.5705444768240877	0.023009691826041956	-0.1746221633416397	0.5585023031905267	0.016842217578310836	-0.1625827150327368	0.5403480336510587	0.012108715775000944	-0.14584872892163925	0.5122829835631226	-0.000852439103754099	-0.11655713419259511	0.595147675522027	0.040275433713153896	-0.14243695942643853	0.5812646743292637	0.031419296199230895	-0.13489831855316314	0.5568809682422805	0.02281424142220967	-0.1214522239622387	0.5223816490013523	0.004625628399443582	-0.09965499365147212	0.599968479838545	0.03794825067730312	-0.11449153879755447	0.5850716338766275	0.0316342179279121	-0.1065406287347675	0.5631652887029585	0.025309992117755975	-0.09652583028276607	0.5305781658293331	0.007097725458847237	-0.08099799720908651	0.601424105214134	0.022771471000653465	-0.06191581871019369	0.5847740452417317	0.01991318327564673	-0.059157976402069656	0.56429808466209	0.01581744691585385	-0.056973485383083666	0.532428499113437	-0.0009465957706813466	-0.059017951269599966	0.4622830810018609	-0.023011742144276925	-0.051989820119430985
2	0.06666666666666676	0.4797405859273626	-0.015925373321658998	-0.17102682396238278	0.48340513994134693	-0.020902010983039232	-0.14889530522855154	0.47680256931920717	-0.027045007613359595	-0.11910454065998888	0.47842455705750964	-0.029939917226414425	-0.07461995170933045	0.5703899572814275	0.023840721436217627	-0.17444631446664294	0.558069758819003	0.01785867318690093	-0.1625960904776491	0.5399762705243616	0.012612721033302021	-0.14594930399094774	0.512083378328237	-0.0007707102386281806	-0.11668317294625885	0.595202346556139	0.04052597497609556	-0.1423209839340508	0.5810004391735457	0.03219556043037264	-0.1347771109106864	0.5566310192358221	0.023745425197092107	-0.12120743381658605	0.5219754604522835	0.005740726288523401	-0.09950556791495224	0.599849372541511	0.03832966449827979	-0.11426686433144967	0.5849317459934263	0.03224880795713381	-0.10617442329688648	0.5630799477182206	0.025861871929813818	-0.0960805667830143	0.5305929255607379	0.007344545811282188	-0.08070451856641525	0.6016919185602071	0.022249431830164923	-0.06181703856123688	0.5850782000362809	0.019500481103569722	-0.05874659450369435	0.5645627747689322	0.015683913474631384	-0.056430745494459256	0.5322773730041095	-0.0002784133238801223	-0.058364758695424124	0.4622830810018609	-0.023011742144276925	-0.051989820119430985
3	0.10000000000000014	0.479972389407036	-0.016062835985259705	-0.17124772532258514	0.48372511874939605	-0.02090653043179458	-0.149101492085495	0.476796647998343	-0.027110804620167017	-0.11939756515912209	0.47796587722900097	-0.030063393226251844	-0.07490256405192597	0.5702077320609248	0.02442794574126561	-0.17436074323486977	0.5576864080546741	0.0185988638167337	-0.16264587025017269	0.5396375478781981	0.013005680357135452	-0.14606380831212362	0.5118880467883549	-0.0006859929520933727	-0.11680394902917174	0.5951622387607202	0.040751938101354135	-0.1422727035439041	0.5807439838932298	0.032802791354601624	-0.1347278382320063	0.5563865231271358	0.024468232080022356	-0.12106552595601422	0.5216223795500486	0.006623051047216277	-0.09940561468523446	0.5997255053191006	0.038619176257691956	-0.11414587764649609	0.5847955239674668	0.03271638778788588	-0.10594510054181921	0.5629864269274726	0.026298941654735786	-0.0957785057122692	0.5305843836662588	0.0075369219821241895	-0.0805202278178615	0.6018525723780453	0.021875416875493325	-0.06176799827833346	0.5852692969111106	0.019213667395274636	-0.05846495960276277	0.5647285422226751	0.015606397499828395	-0.0560407030711807	0.5321458771903115	0.00024908348207264286	-0.05788631856440618	0.4622830810018609	-0.023011742144276925	-0.051989820119430985
4	0.13333333333333353	0.4800807349027406	-0.01613587814092221	-0.17142667430684788	0.4838964130719492	-0.02089026417626716	-0.14927184608508226	0.47676785199416927	-0.02714111475010461	-0.11962508430468011	0.4775917235878483	-0.030154140371047244	-0.0751263999173335	0.5700141408543963	0.024813553311228143	-0.17435506132599488	0.5573572797177646	0.019106608493471455	-0.16272601807149167	0.5393361597163006	0.01329817799792754	-0.14618784398632545	0.5117009954282837	-0.0005994306059577958	-0.11691686409381852	0.5950646060519431	0.04094275535505276	-0.14228896603388652	0.5805078759252467	0.03325097606614014	-0.13474322952979473	0.5561594799867559	0.024997990489119326	-0.12101539669689759	0.5213274660142857	0.007288427032504208	-0.09935321569410438	0.599609857040643	0.038818768071796184	-0.11411260177265059	0.5846731420292649	0.03304424651717408	-0.10583314252194587	0.5628953969224176	0.026624469242394144	-0.09560102364053075	0.5305574954303695	0.007688791283346763	-0.0804213971193729	0.6019409220357057	0.021626215143478178	-0.061769554144486594	0.5853800999773755	0.019031847198940022	-0.05830423630615267	0.5648243709793469	0.015573366504163078	-0.05579168070607832	0.5320382987654264	0.0006469015545778056	-0.057568634248633344	0.4622830810018608	-0.023011742144276925	-0.051989820119430985
5	0.1666666666666669	0.48010439516008874	-0.016155137802760122	-0.17156803782274888	0.4839597555941785	-0.020856742203151035	-0.14940881599558442	0.47673230242197506	-0.027141201413385607	-0.11979311926093872	0.47730567421753867	-0.030214375371014568	-0.07529461539159266	0.5698216951477761	0.025033925641455457	-0.17441465716083837	0.5570839171517502	0.01942106123349463	-0.16282825284967256	0.539074679906439	0.013502861547350808	-0.14631607191204277	0.5115259818162717	-0.0005121019394576098	-0.1170195511971141	0.5949357206861301	0.041094526552045374	-0.1423603685113743	0.5803000998445432	0.03355642097545408	-0.13481215237128724	0.5559575539048082	0.025356296879037954	-0.12104233131307202	0.5210915258077777	0.0077592238029599025	-0.09934322937561268	0.5995103543735432	0.03893458042380327	-0.11415128155774174	0.5845703378695694	0.033245060303934815	-0.10581909891052343	0.5628133792799186	0.026846745586666332	-0.0955294778918947	0.5305158617742117	0.007810886675582718	-0.08038922450940855	0.6019808033025917	0.02148053158292562	-0.061817569021345165	0.5854338895469162	0.018936565772516123	-0.05824995313427106	0.5648707622595815	0.01557561557654874	-0.0556665776398646	0.5319556101219534	0.0009298369041064181	-0.05739208563307341	0.4622830810018609	-0.023011742144276925	-0.051989820119430985
